# xmcd
#
# Track frame offsets:
#	150
#	10006
#	18419
#	29885
#	45325
#	56065
#	65032
#	74508
#	88063
#	101664
#	108893
#	118665
#	127396
#
# Disc length: 1833 seconds
#
# Revision: 0
# Processed by: cddbd v1.5.2PL0 Copyright (c) Steve Scherf et al.
# Submitted via: VUPlayer 2.49
#
DISCID=bc07270d
DTITLE=The Reverend Peyton's Big Damn Band - Peyton On Patton
DYEAR=2011
DGENRE=Blues Traditional
TTITLE0=Jesus Is A Dying-Bed Maker
TTITLE1=Some of These Days I'll Be Gone (Charley Version)
TTITLE2=Mississippi Boweavil Blues
TTITLE3=Elder Greene Blues
TTITLE4=Tom Rushen Blues
TTITLE5=Some Happy Day
TTITLE6=Some of These Days I'll Be Gone (Banjo Version)
TTITLE7=Green River Blues
TTITLE8=Prayer of Death Pt. 1
TTITLE9=A Spoonful Blues
TTITLE10=You're Gonna Need Someone (When You Come to Die)
TTITLE11=Shake It and Break It
TTITLE12=Some of These Days I'll Be Gone (Rev. Peyton Slide Version)
EXTD=
EXTT0=
EXTT1=
EXTT2=
EXTT3=
EXTT4=
EXTT5=
EXTT6=
EXTT7=
EXTT8=
EXTT9=
EXTT10=
EXTT11=
EXTT12=
PLAYORDER=
